<?xml version="1.0" encoding="UTF-8" standalone="no"?>
<!-- Created with Inkscape (http://www.inkscape.org/) -->

<svg
   xmlns:dc="http://purl.org/dc/elements/1.1/"
   xmlns:cc="http://creativecommons.org/ns#"
   xmlns:rdf="http://www.w3.org/1999/02/22-rdf-syntax-ns#"
   xmlns:svg="http://www.w3.org/2000/svg"
   xmlns="http://www.w3.org/2000/svg"
   xmlns:xlink="http://www.w3.org/1999/xlink"
   xmlns:sodipodi="http://sodipodi.sourceforge.net/DTD/sodipodi-0.dtd"
   xmlns:inkscape="http://www.inkscape.org/namespaces/inkscape"
   width="89.690392mm"
   height="197.83mm"
   viewBox="0 0 89.690392 197.83"
   version="1.1"
   id="svg8"
   inkscape:version="0.92.1 r15371"
   sodipodi:docname="border.svg"
   inkscape:export-filename="C:\xampp\htdocs\felfedezo\images\border.png"
   inkscape:export-xdpi="14.123238"
   inkscape:export-ydpi="14.123238">
  <defs
     id="defs2">
    <pattern
       inkscape:isstock="true"
       inkscape:stockid="Wavy"
       id="Wavy"
       height="5.1805778"
       width="30.066020"
       patternUnits="userSpaceOnUse"
       inkscape:collect="always">
      <path
         id="path6023"
         d="M 7.597,0.061 C 5.079,-0.187 2.656,0.302 -0.01,1.788 L -0.01,3.061 C 2.773,1.431 5.173,1.052 7.472,1.280 C 9.770,1.508 11.969,2.361 14.253,3.218 C 18.820,4.931 23.804,6.676 30.066,3.061 L 30.062,1.788 C 23.622,5.497 19.246,3.770 14.691,2.061 C 12.413,1.207 10.115,0.311 7.597,0.061 z "
         style="fill:black;stroke:none;" />
    </pattern>
    <pattern
       patternTransform="matrix(-1,0,0,1,109.5805,-9.9999996e-7)"
       id="pattern6607"
       xlink:href="#Wavy-4"
       inkscape:collect="always" />
    <pattern
       inkscape:isstock="true"
       inkscape:stockid="Wavy"
       id="Wavy-4"
       height="5.1805778"
       width="30.066020"
       patternUnits="userSpaceOnUse"
       inkscape:collect="always">
      <path
         id="path6023-6"
         d="M 7.597,0.061 C 5.079,-0.187 2.656,0.302 -0.01,1.788 L -0.01,3.061 C 2.773,1.431 5.173,1.052 7.472,1.280 C 9.770,1.508 11.969,2.361 14.253,3.218 C 18.820,4.931 23.804,6.676 30.066,3.061 L 30.062,1.788 C 23.622,5.497 19.246,3.770 14.691,2.061 C 12.413,1.207 10.115,0.311 7.597,0.061 z "
         style="fill:black;stroke:none;" />
    </pattern>
    <filter
       inkscape:collect="always"
       style="color-interpolation-filters:sRGB"
       id="filter6641"
       x="-0.029682688"
       width="1.0593654"
       y="-0.0075200978"
       height="1.0150402">
      <feGaussianBlur
         inkscape:collect="always"
         stdDeviation="0.3770232"
         id="feGaussianBlur6643" />
    </filter>
    <filter
       inkscape:collect="always"
       style="color-interpolation-filters:sRGB"
       id="filter6649"
       x="-0.029682688"
       width="1.0593654"
       y="-0.0075200978"
       height="1.0150402">
      <feGaussianBlur
         inkscape:collect="always"
         stdDeviation="0.3770232"
         id="feGaussianBlur6651" />
    </filter>
  </defs>
  <sodipodi:namedview
     id="base"
     pagecolor="#ffffff"
     bordercolor="#666666"
     borderopacity="1.0"
     inkscape:pageopacity="0.0"
     inkscape:pageshadow="2"
     inkscape:zoom="0.49497475"
     inkscape:cx="-667.45391"
     inkscape:cy="468.37873"
     inkscape:document-units="mm"
     inkscape:current-layer="layer1"
     showgrid="false"
     fit-margin-top="0"
     fit-margin-left="0"
     fit-margin-right="0"
     fit-margin-bottom="0"
     inkscape:snap-intersection-paths="true"
     inkscape:snap-global="true"
     inkscape:window-width="1366"
     inkscape:window-height="705"
     inkscape:window-x="-8"
     inkscape:window-y="-8"
     inkscape:window-maximized="1" />
  <metadata
     id="metadata5">
    <rdf:RDF>
      <cc:Work
         rdf:about="">
        <dc:format>image/svg+xml</dc:format>
        <dc:type
           rdf:resource="http://purl.org/dc/dcmitype/StillImage" />
        <dc:title />
      </cc:Work>
    </rdf:RDF>
  </metadata>
  <g
     inkscape:label="Layer 1"
     inkscape:groupmode="layer"
     id="layer1"
     transform="translate(-9.9450533,-94.465789)">
    <path
       style="opacity:0.75;fill:none;fill-opacity:1;stroke:#000000;stroke-width:1.06500006;stroke-linecap:round;stroke-linejoin:round;stroke-miterlimit:4;stroke-dasharray:none;stroke-opacity:1;filter:url(#filter6649)"
       d="m 41.39179,170.6956 c 0,0 -18.769051,14.38391 -3.12085,27.5893 13.59287,14.65531 21.72488,20.02015 24.255662,41.68667 -1.309492,17.24606 -16.266312,7.37757 -18.424912,19.86371 -2.57255,14.88055 12.600861,19.67253 9.02557,31.18531"
       id="path4559-7-5-0-3-6"
       inkscape:connector-curvature="0"
       sodipodi:nodetypes="cccsc" />
    <path
       style="opacity:0.75;fill:none;fill-opacity:1;stroke:#000000;stroke-width:1.06500006;stroke-linecap:round;stroke-linejoin:round;stroke-miterlimit:4;stroke-dasharray:none;stroke-opacity:1;filter:url(#filter6641)"
       d="m 67.999717,171.06595 c 0,0 18.76905,14.38391 3.12085,27.58929 -13.59287,14.65532 -21.72488,20.02016 -24.255662,41.68668 1.309492,17.24606 16.266312,7.37757 18.424912,19.86371 2.57255,14.88055 -12.600861,19.67253 -9.02557,31.18531"
       id="path4559-7-5-0-3"
       inkscape:connector-curvature="0"
       sodipodi:nodetypes="cccsc" />
    <path
       style="opacity:0;fill:none;stroke:#000000;stroke-width:1.06500006;stroke-linecap:round;stroke-linejoin:round;stroke-miterlimit:4;stroke-dasharray:none;stroke-opacity:1"
       d="m 67.632222,170.31425 c -0.01376,-0.0594 15.523366,16.39954 3.655389,28.52473 -7.512277,8.61665 -21.995395,18.28617 -24.790196,40.75125 3.314011,16.31062 16.30884,8.77895 18.024006,21.33368 1.503469,11.00514 -12.199956,18.20256 -8.624668,29.71534"
       id="path4559-7"
       inkscape:connector-curvature="0"
       sodipodi:nodetypes="cccsc" />
    <path
       style="fill:none;fill-opacity:1;stroke:#0a73de;stroke-width:1.06500006;stroke-linecap:round;stroke-linejoin:round;stroke-miterlimit:4;stroke-dasharray:none;stroke-opacity:1"
       d="m 67.632222,170.31424 c 0,0 18.76905,14.38392 3.12085,27.5893 -13.59287,14.65532 -21.72488,20.02016 -24.255662,41.68668 1.309492,17.24606 16.266312,7.37757 18.424912,19.86371 2.57255,14.88055 -12.600861,19.67253 -9.02557,31.18531"
       id="path4559-7-5-0"
       inkscape:connector-curvature="0"
       sodipodi:nodetypes="cccsc" />
    <path
       sodipodi:nodetypes="cccsc"
       inkscape:connector-curvature="0"
       id="path4606"
       d="m 41.948279,170.31425 c 0,0 -18.769054,14.38392 -3.12085,27.58929 13.592865,14.65533 21.724877,20.02017 24.255657,41.68669 -1.30949,17.24606 -16.266313,7.37757 -18.42491,19.86371 -2.572547,14.88055 12.60086,19.67253 9.025572,31.18531"
       style="fill:none;stroke:#0a73de;stroke-width:1.06500006;stroke-linecap:round;stroke-linejoin:round;stroke-miterlimit:4;stroke-dasharray:none;stroke-opacity:1" />
    <path
       style="fill:none;stroke:#0a73de;stroke-width:1.06500006;stroke-linecap:round;stroke-linejoin:round;stroke-miterlimit:4;stroke-dasharray:none;stroke-opacity:1"
       d="m 41.948279,170.31425 c 0,0 -18.769054,14.38392 -3.12085,27.58929 13.592865,14.65533 21.724877,20.02017 24.255657,41.68669 -1.30949,17.24606 -16.266313,7.37757 -18.42491,19.86371 -2.572547,14.88055 12.60086,19.67253 9.025572,31.18531"
       id="path4559-7-5"
       inkscape:connector-curvature="0"
       sodipodi:nodetypes="cccsc" />
    <path
       style="opacity:0.3;fill:none;stroke:url(#Wavy);stroke-width:0.76499999;stroke-linecap:round;stroke-linejoin:round;stroke-miterlimit:4;stroke-dasharray:none;stroke-opacity:1"
       d="m 41.948279,170.31425 c 0,0 -18.769054,14.38391 -3.12085,27.58929 13.592865,14.65532 21.724876,20.02016 24.255658,41.68668 -1.309492,17.24606 -16.266314,7.37757 -18.424912,19.86371 -2.572547,14.88055 12.600862,19.67254 9.025573,31.18532"
       id="path4559-7-5-3"
       inkscape:connector-curvature="0"
       sodipodi:nodetypes="cccsc" />
    <path
       style="opacity:0.3;fill:none;stroke:url(#pattern6607);stroke-width:0.76499999;stroke-linecap:round;stroke-linejoin:round;stroke-miterlimit:4;stroke-dasharray:none;stroke-opacity:1"
       d="m 67.632221,170.31425 c 0,0 18.769051,14.38391 3.120851,27.58929 -13.592865,14.65532 -21.724877,20.02016 -24.255659,41.68668 1.309492,17.24606 16.266315,7.37757 18.424913,19.86371 2.572546,14.88055 -12.600861,19.67253 -9.025572,31.18531"
       id="path4559-7-5-3-1"
       inkscape:connector-curvature="0"
       sodipodi:nodetypes="cccsc" />
  </g>
  <g
     inkscape:groupmode="layer"
     id="layer2"
     inkscape:label="Badge"
     sodipodi:insensitive="true"
     transform="translate(-9.9450533,-7.4657886)">
    <g
       id="g4557"
       transform="translate(-155.01633,-136.71213)">
      <rect
         y="158.01985"
         x="178.80331"
         height="62.006531"
         width="62.006531"
         id="rect4487"
         style="opacity:1;fill:#0a73de;fill-opacity:1;stroke:#000000;stroke-width:2;stroke-linecap:round;stroke-linejoin:round;stroke-miterlimit:4;stroke-dasharray:none;stroke-opacity:1;paint-order:normal" />
      <rect
         transform="rotate(45)"
         y="-45.699394"
         x="251.01192"
         height="62.006531"
         width="62.006531"
         id="rect4487-6"
         style="opacity:1;fill:#78a769;fill-opacity:1;stroke:#000000;stroke-width:2;stroke-linecap:round;stroke-linejoin:round;stroke-miterlimit:4;stroke-dasharray:none;stroke-opacity:1;paint-order:normal" />
      <g
         transform="matrix(0.7548508,0,0,0.7548508,111.78007,36.629317)"
         id="g4517">
        <path
           style="display:inline;fill:#803300;stroke:none;stroke-width:0.16500001;stroke-linecap:round;stroke-linejoin:round;stroke-miterlimit:4;stroke-dasharray:none;stroke-opacity:1;paint-order:stroke fill markers"
           d="m 116.0502,212.44261 -2.73952,19.81136 2.80633,-0.26727 c 0,0 2.75621,-9.92239 3.29075,-10.32329 0.53454,-0.4009 0.96885,-0.0501 0.96885,-0.0501 l 6.69845,9.17069 3.74177,-0.40091 -7.5301,-13.77109 c 3.51408,-4.02244 7.50803,-5.82032 12.97809,-3.43607 -0.92213,5.81245 -2.68703,11.44385 -3.97801,17.20716 l 2.77293,-0.60135 c 1.5975,-4.36323 2.96574,-7.97644 4.47676,-11.99373 0.27352,-0.18388 0.75248,-0.37865 1.5368,0.0334 1.40457,3.61072 2.59201,7.31449 3.37428,11.19191 l 2.67269,-0.23386 c -0.55742,-7.2719 -0.80019,-14.77167 -1.36064,-21.97014 -0.34696,-4.45642 -1.06292,-8.67374 -1.30587,-13.02242 -0.27049,-4.84143 -0.29957,-9.12031 -0.47391,-13.81753 0,0 1.3755,-0.16944 3.24639,-1.87327 1.15228,-1.05748 3.01764,-3.93231 2.84616,-4.62186 -5.73733,-2.64133 -10.3923,1.28353 -12.97474,3.45494 -0.79814,0.22038 -1.63052,0.53204 -2.17156,0.0668 -1.22695,-0.89011 -1.68021,-2.0897 -2.50565,-3.14041 -1.10664,-1.53847 -2.57577,-2.59602 -4.20949,-3.47451 -0.55956,3.1e-4 -1.02922,0.18047 -0.70159,0.80181 l 1.70384,1.33635 c 1.2829,1.3408 2.76691,2.59775 3.37428,4.27631 l -2.60587,0.0334 c 0,0 -1.06909,-0.13363 -1.73726,-0.93544 -0.66817,-0.80181 -2.23838,-1.63703 -2.77292,-1.9043 -0.53454,-0.26727 -1.46998,-0.66817 -2.00452,-0.66817 -0.53454,0 -2.00452,0.13363 -2.13816,0.80181 -0.13363,0.66817 1.97112,0.40091 1.97112,0.40091 0,0 0.63476,0.13363 1.1693,0.26726 0.53454,0.13363 1.9043,1.13589 0.56795,1.13589 -1.33635,0 -1.63703,0.20046 -2.3052,0.20046 -0.66818,0 -1.77066,-0.50113 -1.77066,-0.50113 -0.21221,-0.24469 -0.93601,-0.63448 -1.50339,-0.70158 -1.04893,0.27651 -0.50933,1.09017 -0.0334,1.36975 l 1.83748,0.63477 c 0,0 2.60587,0.26727 3.14041,0.26727 0.53454,0 1.20271,-0.0334 2.00452,-0.16705 0.80181,-0.13363 0.83522,0.46772 0.83522,0.46772 -2.48101,1.57792 -3.5921,2.35926 -6.01356,2.90656 -1.08253,0.2329 -4.17609,-0.26727 -4.92778,0.10023 -0.48883,0.14564 -3.30399,0.86955 -4.32643,2.50565 2.6328,-0.22912 4.85676,-2.04552 7.56707,-0.88533 -0.854,2.2183 -1.65195,3.99 -3.68831,5.81093 -2.08037,0.56572 -3.93638,0.54151 -5.9501,2.15704 -1.05596,0.87352 -1.26953,1.89318 -1.26953,3.14042 0,0 0.4009,0.33409 0.73499,-0.0668 0.65308,-0.68723 0.0114,-1.30224 2.20567,-2.95618 2.19044,-0.98946 1.93702,-0.74538 3.51701,-0.57704 0,0 -0.21561,0.82186 -0.97864,1.72913 -1.17274,1.39444 -2.80633,2.73951 -3.14042,2.87315 -1.08607,1.03555 -1.92159,0.7876 -3.40769,2.40543 1.20894,0.25 2.03159,0.17831 3.87541,-0.93545 1.12513,-0.92468 3.02635,-2.66123 3.02635,-2.66123 0.0873,0.0363 2.46747,-3.03006 2.61398,-4.20614 1.45123,-1.38779 3.56303,-4.84799 4.51591,-5.82793 0.11245,-1.37004 8.03014,-4.82 6.48129,-2.93997 -0.53454,0.60136 -0.92398,0.88484 -1.92624,1.28575 -1.56986,0.83946 -2.80011,0.61834 -1.67715,1.37549 2.45813,0.32454 2.84279,-0.46522 4.27631,-1.24256 0,0 0.73024,-0.7505 1.06433,-1.21822 1.25301,-1.09374 1.88358,-1.23628 3.3125,-1.281 0.20045,0.33409 -0.12692,0.77888 -0.78365,1.12849 -1.50767,0.65599 -3.31537,2.50988 -4.22026,3.17214 -0.86863,0.40091 -1.64276,-0.11139 -2.97911,0.35633 -3.75553,1.70098 -6.8053,7.06536 -3.55209,4.77506 0.90319,-1.15322 5.60969,-4.36793 4.83112,-2.42764 -0.33409,0.80181 -1.04476,1.82294 -1.24521,2.49111 -0.20045,0.66818 -1.25876,2.42905 -1.25876,2.42905 -3.58234,2.27117 -5.07549,2.06268 -7.32224,5.53843 2.2184,0.18584 3.95171,-3.23862 5.76516,-2.39327 0.43635,2.12316 -2.71684,4.32349 -3.80452,5.95822 -0.26727,0.40091 -2.90824,1.63465 -3.84369,2.23601 -2.78362,1.8298 -4.26763,3.64789 -4.92631,6.30109 1.3221,0.0725 2.39324,-2.873 3.00146,-3.20457 0.55728,-0.46004 2.59517,-1.85417 2.84814,-1.42539 0.0699,2.10243 -1.88234,3.64784 -1.59144,3.58382 1.41636,0.40227 2.16721,-0.86468 2.88461,-2.06322 0.26727,-0.46772 0.55886,-2.58225 0.55886,-2.58225 l 2.02409,-1.58405 c 0,0 2.38061,-2.2456 2.94807,-2.95548 0.58753,-0.73499 1.22377,-2.27179 1.41868,-2.93997 0.26727,-0.66817 0.52238,-1.3485 0.65602,-1.08123 1.44813,3.13255 -0.31731,5.13663 -1.02352,7.8372 2.92228,-0.2577 2.67022,-4.21011 2.96122,-6.36722 -0.0195,-1.95745 -0.58913,-3.0134 -0.60135,-4.34313 0,-0.26727 1.00226,-2.60588 1.13589,-2.93997 0.13364,-0.33408 1.9043,-3.00677 1.9043,-3.00677 1.00532,-1.37807 1.27976,-1.81914 2.93996,-1.83749 -0.22468,0.61228 -0.60644,1.2071 -0.0668,1.9043 2.45672,4.52456 -1.39409,6.56865 0.36749,6.68174 1.32018,-0.29885 1.60966,-1.83491 1.63703,-3.14042 0,-0.80181 0.20045,-1.77066 0,-2.63929 -0.20046,-0.86862 -0.3675,-1.63702 -0.43432,-2.17156 -0.0668,-0.53454 -0.10022,-0.86863 0.0334,-1.40317 0.77377,-1.80224 3.04132,-3.76008 4.77744,-3.24065 l -1.00225,20.67998 c -3.41171,1.43846 -13.14321,2.40186 -23.40279,9.47136 -0.83905,0.55297 -0.10034,1.96098 0.50113,1.80407 1.30183,-0.21133 1.69049,0.29067 1.78736,0.85193 z"
           id="path4498"
           inkscape:connector-curvature="0"
           sodipodi:nodetypes="cccscccccccccccsscccccccccccsssccsssccccsccccccccccccsccccccccccccccccccccccccccccccscccccccccccccccccccc" />
        <path
           style="display:inline;fill:#ffffff;stroke:none;stroke-width:0.16500001;stroke-linecap:round;stroke-linejoin:round;stroke-miterlimit:4;stroke-dasharray:none;stroke-opacity:1"
           d="m 138.99354,177.54325 c 0.37837,0.0728 2.48826,0.33044 3.95694,-0.44885 1.25416,-0.70949 2.09488,-2.07267 2.27967,-2.62221 -0.56705,-0.19699 -2.28538,-0.28327 -3.69708,0.50791 -0.91082,0.40335 -2.30145,2.16121 -2.53953,2.56315 z"
           id="path4502"
           inkscape:connector-curvature="0"
           sodipodi:nodetypes="cccccc" />
        <circle
           style="display:inline;opacity:1;fill:#803300;fill-opacity:1;stroke:none;stroke-width:0.05638714;stroke-linecap:round;stroke-linejoin:round;stroke-miterlimit:4;stroke-dasharray:none;stroke-opacity:1;paint-order:stroke fill markers"
           id="path4508"
           cx="142.55592"
           cy="175.67084"
           r="0.81149191" />
      </g>
    </g>
  </g>
</svg>
